<?xml version="1.0" encoding="UTF-8" standalone="no"?>
<svg
   xmlns:dc="http://purl.org/dc/elements/1.1/"
   xmlns:cc="http://creativecommons.org/ns#"
   xmlns:rdf="http://www.w3.org/1999/02/22-rdf-syntax-ns#"
   xmlns:svg="http://www.w3.org/2000/svg"
   xmlns="http://www.w3.org/2000/svg"
   xmlns:sodipodi="http://sodipodi.sourceforge.net/DTD/sodipodi-0.dtd"
   xmlns:inkscape="http://www.inkscape.org/namespaces/inkscape"
   width="96mm"
   height="24mm"
   viewBox="0 0 96 24"
   version="1.1"
   id="svg1979"
   inkscape:version="1.0.1 (3bc2e813f5, 2020-09-07)"
   sodipodi:docname="website.svg">
  <defs
     id="defs1973">
    <inkscape:path-effect
       effect="fillet_chamfer"
       id="path-effect868"
       is_visible="true"
       lpeversion="1"
       satellites_param="F,0,0,1,0,2.6458333,0,1 @ F,0,0,1,0,2.6458333,0,1 @ F,0,0,1,0,2.6458333,0,1 @ F,0,0,1,0,2.6458333,0,1"
       unit="px"
       method="auto"
       mode="F"
       radius="10"
       chamfer_steps="1"
       flexible="false"
       use_knot_distance="true"
       apply_no_radius="true"
       apply_with_radius="true"
       only_selected="false"
       hide_knots="false" />
    <inkscape:path-effect
       effect="fillet_chamfer"
       id="path-effect837"
       is_visible="true"
       lpeversion="1"
       satellites_param="F,0,0,1,0,11.90625,0,1 @ F,0,0,1,0,11.90625,0,1 @ F,0,0,1,0,11.90625,0,1 @ F,0,0,1,0,11.90625,0,1"
       unit="px"
       method="auto"
       mode="F"
       radius="45"
       chamfer_steps="1"
       flexible="false"
       use_knot_distance="true"
       apply_no_radius="true"
       apply_with_radius="true"
       only_selected="false"
       hide_knots="false" />
    <inkscape:path-effect
       effect="fillet_chamfer"
       id="path-effect2574"
       is_visible="true"
       lpeversion="1"
       satellites_param="F,1,0,1,0,0.13,0,1 @ F,1,0,1,0,0.13,0,1 @ F,1,0,1,0,0.13,0,1 @ F,1,0,1,0,0.13,0,1"
       unit="px"
       method="auto"
       mode="F"
       radius="13"
       chamfer_steps="1"
       flexible="true"
       use_knot_distance="true"
       apply_no_radius="true"
       apply_with_radius="true"
       only_selected="false"
       hide_knots="false" />
  </defs>
  <sodipodi:namedview
     id="base"
     pagecolor="#ffffff"
     bordercolor="#666666"
     borderopacity="1.0"
     inkscape:pageopacity="0.0"
     inkscape:pageshadow="2"
     inkscape:zoom="1.979899"
     inkscape:cx="160.17277"
     inkscape:cy="91.097598"
     inkscape:document-units="mm"
     inkscape:current-layer="layer1"
     inkscape:document-rotation="0"
     showgrid="false"
     inkscape:window-width="1920"
     inkscape:window-height="1017"
     inkscape:window-x="-8"
     inkscape:window-y="-8"
     inkscape:window-maximized="1" />
  <metadata
     id="metadata1976">
    <rdf:RDF>
      <cc:Work
         rdf:about="">
        <dc:format>image/svg+xml</dc:format>
        <dc:type
           rdf:resource="http://purl.org/dc/dcmitype/StillImage" />
        <dc:title />
      </cc:Work>
    </rdf:RDF>
  </metadata>
  <g
     inkscape:label="Layer 1"
     inkscape:groupmode="layer"
     id="layer1">
    <path
       style="fill:#000000;fill-opacity:0.9;stroke:#ffffff;stroke-width:0;stroke-linejoin:round;stroke-miterlimit:50.8;stroke-dasharray:none"
       id="rect860"
       width="94"
       height="21.999998"
       x="1.0000005"
       y="1.0000005"
       inkscape:path-effect="#path-effect868"
       d="M 3.6458338,1.0000005 H 92.354167 A 2.6458333,2.6458333 45 0 1 95,3.6458338 V 20.354165 a 2.6458333,2.6458333 135 0 1 -2.645833,2.645834 H 3.6458338 A 2.6458333,2.6458333 45 0 1 1.0000005,20.354165 V 3.6458338 A 2.6458333,2.6458333 135 0 1 3.6458338,1.0000005 Z"
       sodipodi:type="rect" />
    <g
       id="g879"
       transform="matrix(0.04525006,0,0,0.04527621,2.497488,2.4980686)"
       style="stroke:#ffffff;stroke-opacity:0">
      <path
         style="color:#ffffff;font-style:normal;font-variant:normal;font-weight:normal;font-stretch:normal;font-size:medium;line-height:normal;font-family:sans-serif;font-variant-ligatures:normal;font-variant-position:normal;font-variant-caps:normal;font-variant-numeric:normal;font-variant-alternates:normal;font-variant-east-asian:normal;font-feature-settings:normal;font-variation-settings:normal;text-indent:0;text-align:start;text-decoration:none;text-decoration-line:none;text-decoration-style:solid;text-decoration-color:#000000;letter-spacing:normal;word-spacing:normal;text-transform:none;writing-mode:lr-tb;direction:ltr;text-orientation:mixed;dominant-baseline:auto;baseline-shift:baseline;text-anchor:start;white-space:normal;shape-padding:0;shape-margin:0;inline-size:0;clip-rule:nonzero;display:inline;overflow:visible;visibility:visible;opacity:1;isolation:auto;mix-blend-mode:normal;color-interpolation:sRGB;color-interpolation-filters:linearRGB;solid-color:#ffffff;solid-opacity:1;vector-effect:none;fill:#ffffff;fill-opacity:1;fill-rule:nonzero;stroke:#ffffff;stroke-width:26;stroke-linecap:butt;stroke-linejoin:miter;stroke-miterlimit:4;stroke-dasharray:none;stroke-dashoffset:0;stroke-opacity:0;color-rendering:auto;image-rendering:auto;shape-rendering:auto;text-rendering:auto;enable-background:accumulate;stop-color:#ffffff;stop-opacity:1"
         d="M 208.93359,2 C 94.419376,2.5872601 1.7055239,96.023559 2.0058594,210.48438 2.30618,324.93954 95.51336,417.73242 210,417.73242 c 114.48664,0 207.69382,-92.79288 207.99414,-207.24804 C 418.29448,96.023559 325.58062,2.5872601 211.06641,2 h -0.0332 -2.0664 z m 0.13282,26 h 1.86718 C 311.41848,28.515314 392.25765,109.99129 391.99414,210.41602 391.73065,310.8353 310.4818,391.73242 210,391.73242 109.5182,391.73242 28.269351,310.8353 28.005859,210.41602 27.742353,109.99129 108.58152,28.515314 209.06641,28 Z"
         id="path883" />
      <path
         style="color:#ffffff;font-style:normal;font-variant:normal;font-weight:normal;font-stretch:normal;font-size:medium;line-height:normal;font-family:sans-serif;font-variant-ligatures:normal;font-variant-position:normal;font-variant-caps:normal;font-variant-numeric:normal;font-variant-alternates:normal;font-variant-east-asian:normal;font-feature-settings:normal;font-variation-settings:normal;text-indent:0;text-align:start;text-decoration:none;text-decoration-line:none;text-decoration-style:solid;text-decoration-color:#ffffff;letter-spacing:normal;word-spacing:normal;text-transform:none;writing-mode:lr-tb;direction:ltr;text-orientation:mixed;dominant-baseline:auto;baseline-shift:baseline;text-anchor:start;white-space:normal;shape-padding:0;shape-margin:0;inline-size:0;clip-rule:nonzero;display:inline;overflow:visible;visibility:visible;opacity:1;isolation:auto;mix-blend-mode:normal;color-interpolation:sRGB;color-interpolation-filters:linearRGB;solid-color:#ffffff;solid-opacity:1;vector-effect:none;fill:#ffffff;fill-opacity:1;fill-rule:nonzero;stroke:#ffffff;stroke-width:18;stroke-linecap:butt;stroke-linejoin:miter;stroke-miterlimit:4;stroke-dasharray:none;stroke-dashoffset:0;stroke-opacity:0;color-rendering:auto;image-rendering:auto;shape-rendering:auto;text-rendering:auto;enable-background:accumulate;stop-color:#ffffff;stop-opacity:1"
         d="M 189.19336,13.123047 C 157.32476,40.036844 132.89333,73.918612 117.23828,111.54688 98.757828,104.19162 80.93904,94.596776 64.226562,82.673828 L 53.773438,97.326172 C 71.760267,110.15826 90.951552,120.46509 110.85938,128.35742 103.03121,151.60215 98.542089,176.05 97.578125,201 H 15 v 18 h 82.523438 c 0.772934,25.00435 5.110232,49.51246 12.779292,72.84375 -19.710444,7.86463 -38.708656,18.11655 -56.529292,30.83008 l 10.453124,14.65234 c 16.48909,-11.76358 34.048105,-21.28633 52.263668,-28.60351 15.61922,38.32612 40.343,72.82539 72.70313,100.15429 l 11.61328,-13.7539 C 170.88772,369.85581 148.00086,338.00736 133.45312,302.62695 155.43856,295.58611 178.17334,291.80436 201,290.98633 V 405 h 18 V 290.98633 c 22.82666,0.81803 45.56144,4.59978 67.54688,11.64062 -14.54774,35.38041 -37.4346,67.22886 -67.35352,92.4961 l 11.61328,13.7539 c 32.36013,-27.3289 57.08391,-61.82817 72.70313,-100.15429 18.21556,7.31718 35.77458,16.83993 52.26367,28.60351 l 10.45312,-14.65234 C 348.40593,309.9603 329.40771,299.70838 309.69727,291.84375 317.36633,268.51246 321.70363,244.00435 322.47656,219 H 405 v -18 h -82.57812 c -0.96397,-24.95 -5.45309,-49.39785 -13.28126,-72.64258 19.90783,-7.89233 39.09911,-18.19916 57.08594,-31.031248 L 355.77344,82.673828 C 339.06096,94.596776 321.24217,104.19162 302.76172,111.54688 287.10667,73.918612 262.67524,40.036844 230.80664,13.123047 L 219.19336,26.876953 C 248.6207,51.729042 271.21948,82.959038 285.79883,117.64258 264.04819,124.53234 241.56526,128.20501 219,129.01367 V 15 h -18 v 114.01367 c -22.56526,-0.80866 -45.04819,-4.48133 -66.79883,-11.37109 14.57935,-34.683542 37.17813,-65.913538 66.60547,-90.765627 z M 127.80859,134.44336 c 23.81496,7.63612 48.45547,11.71677 73.19141,12.54297 V 201 h -85.42188 c 0.94851,-22.85657 5.08949,-45.24561 12.23047,-66.55664 z m 164.38282,0 c 7.14098,21.31103 11.28196,43.70007 12.23047,66.55664 H 219 v -54.01367 c 24.73594,-0.8262 49.37645,-4.90685 73.19141,-12.54297 z M 115.52344,219 H 201 v 54.01367 c -24.93038,0.83269 -49.75911,4.99209 -73.74805,12.74219 C 120.26813,264.36005 116.28409,241.91016 115.52344,219 Z M 219,219 h 85.47656 c -0.76065,22.91016 -4.74469,45.36005 -11.72851,66.75586 C 268.75911,278.00576 243.93038,273.84636 219,273.01367 Z"
         id="path887" />
    </g>
    <text
       xml:space="preserve"
       style="font-size:14.2875px;line-height:1.25;font-family:'Saira SemiCondensed';-inkscape-font-specification:'Saira SemiCondensed, ';letter-spacing:0px;fill:#ffffff;fill-opacity:1;stroke:none;stroke-width:0.264582;stroke-opacity:1"
       x="31.482487"
       y="16.386763"
       id="text841"><tspan
         sodipodi:role="line"
         id="tspan839"
         x="31.482487"
         y="16.386763"
         style="font-size:14.2875px;fill:#ffffff;fill-opacity:1;stroke:none;stroke-width:0.264582;stroke-opacity:1">Webpage</tspan></text>
  </g>
</svg>
